<?xml version="1.0" standalone="no"?><!DOCTYPE svg PUBLIC "-//W3C//DTD SVG 1.1//EN" "http://www.w3.org/Graphics/SVG/1.1/DTD/svg11.dtd"><svg class="icon" height="512" viewBox="0 0 1024 1024" version="1.1" xmlns="http://www.w3.org/2000/svg"><path d="M348.16 839.68c-180.224 0-327.68-147.456-327.68-327.68s147.456-327.68 327.68-327.68 327.68 147.456 327.68 327.68-147.456 327.68-327.68 327.68z m0-40.96c157.696 0 286.72-129.024 286.72-286.72s-129.024-286.72-286.72-286.72-286.72 129.024-286.72 286.72 129.024 286.72 286.72 286.72z m327.68 40.96c-180.224 0-327.68-147.456-327.68-327.68s147.456-327.68 327.68-327.68 327.68 147.456 327.68 327.68-147.456 327.68-327.68 327.68z m0-40.96c157.696 0 286.72-129.024 286.72-286.72s-129.024-286.72-286.72-286.72-286.72 129.024-286.72 286.72 129.024 286.72 286.72 286.72z m-163.84-495.616c63.488 51.2 102.4 126.976 102.4 208.896s-38.912 159.744-102.4 208.896c-63.488-51.2-102.4-126.976-102.4-208.896s38.912-159.744 102.4-208.896z" /></svg>